<?xml version="1.0" encoding="UTF-8" standalone="no"?>
<svg
   xmlns:dc="http://purl.org/dc/elements/1.1/"
   xmlns:cc="http://creativecommons.org/ns#"
   xmlns:rdf="http://www.w3.org/1999/02/22-rdf-syntax-ns#"
   xmlns:svg="http://www.w3.org/2000/svg"
   xmlns="http://www.w3.org/2000/svg"
   viewBox="0 0 936.51123 1275"
   height="1275"
   width="936.51123"
   xml:space="preserve"
   version="1.1"
   id="svg2"><metadata
     id="metadata8"><rdf:RDF><cc:Work
         rdf:about=""><dc:format>image/svg+xml</dc:format><dc:type
           rdf:resource="http://purl.org/dc/dcmitype/StillImage" /></cc:Work></rdf:RDF></metadata><defs
     id="defs6" /><g
     transform="matrix(1.25,0,0,-1.25,0,1275)"
     id="g10"><path
       id="path12"
       style="fill:#373535;fill-opacity:1;fill-rule:nonzero;stroke:none"
       d="m 701.209,98 -656,0 0,396 656,0 0,-396 z" /><g
       transform="translate(84.8164,911.3696)"
       id="g14"><path
         id="path16"
         style="fill:none;stroke:#373535;stroke-width:3;stroke-linecap:butt;stroke-linejoin:miter;stroke-miterlimit:10;stroke-dasharray:none;stroke-opacity:1"
         d="M 0,0 245.967,-142.009 0,-284.02 0,0 Z" /></g><g
       transform="translate(333.7891,911.3696)"
       id="g18"><path
         id="path20"
         style="fill:none;stroke:#373535;stroke-width:3;stroke-linecap:butt;stroke-linejoin:miter;stroke-miterlimit:10;stroke-dasharray:none;stroke-opacity:1"
         d="M 0,0 245.967,-142.009 0,-284.02 0,0 Z" /></g><g
       transform="translate(395.8877,665.4512)"
       id="g22"><path
         id="path24"
         style="fill:none;stroke:#373535;stroke-width:3;stroke-linecap:butt;stroke-linejoin:miter;stroke-miterlimit:10;stroke-dasharray:none;stroke-opacity:1"
         d="M 0,0 142.009,245.967 284.021,0 0,0 Z" /></g><g
       transform="translate(108.9263,665.4512)"
       id="g26"><path
         id="path28"
         style="fill:none;stroke:#373535;stroke-width:3;stroke-linecap:butt;stroke-linejoin:miter;stroke-miterlimit:10;stroke-dasharray:none;stroke-opacity:1"
         d="M 0,0 142.009,245.967 284.02,0 0,0 Z" /></g><g
       transform="translate(84.8164,429.3691)"
       id="g30"><path
         id="path32"
         style="fill:none;stroke:#ffffff;stroke-width:3;stroke-linecap:butt;stroke-linejoin:miter;stroke-miterlimit:10;stroke-dasharray:none;stroke-opacity:1"
         d="M 0,0 245.967,-142.009 0,-284.02 0,0 Z" /></g><g
       transform="translate(333.7891,429.3691)"
       id="g34"><path
         id="path36"
         style="fill:none;stroke:#ffffff;stroke-width:3;stroke-linecap:butt;stroke-linejoin:miter;stroke-miterlimit:10;stroke-dasharray:none;stroke-opacity:1"
         d="M 0,0 245.967,-142.009 0,-284.02 0,0 Z" /></g><g
       transform="translate(395.8877,183.4512)"
       id="g38"><path
         id="path40"
         style="fill:none;stroke:#ffffff;stroke-width:3;stroke-linecap:butt;stroke-linejoin:miter;stroke-miterlimit:10;stroke-dasharray:none;stroke-opacity:1"
         d="M 0,0 142.009,245.967 284.021,0 0,0 Z" /></g><g
       transform="translate(108.9263,183.4512)"
       id="g42"><path
         id="path44"
         style="fill:none;stroke:#ffffff;stroke-width:3;stroke-linecap:butt;stroke-linejoin:miter;stroke-miterlimit:10;stroke-dasharray:none;stroke-opacity:1"
         d="M 0,0 142.009,245.967 284.02,0 0,0 Z" /></g></g></svg>